<svg width="30" height="30" viewBox="0 0 30 30" fill="none" xmlns="http://www.w3.org/2000/svg">
<path d="M12.8798 3C18.3376 3 22.7609 7.36446 22.7609 12.7465C22.7626 15.0822 21.9155 17.3389 20.3774 19.0966L26.8732 25.6952C26.9506 25.7734 27.0116 25.8663 27.0527 25.9683C27.0938 26.0704 27.1141 26.1797 27.1124 26.2897C27.1107 26.3998 27.0871 26.5084 27.0429 26.6092C26.9987 26.71 26.9349 26.8009 26.8551 26.8767C26.6929 27.031 26.4768 27.1156 26.2531 27.1124C26.0293 27.1093 25.8157 27.0186 25.6579 26.8598L19.1682 20.2649C17.3922 21.7116 15.1704 22.4993 12.8798 22.4942C7.42453 22.4942 3 18.1297 3 12.7465C3 7.36446 7.42453 3 12.8798 3ZM12.8798 4.67103C8.35887 4.67103 4.69386 8.28678 4.69386 12.7465C4.69386 17.2074 8.35887 20.8231 12.8798 20.8231C17.4008 20.8231 21.067 17.2062 21.067 12.7465C21.067 8.28557 17.402 4.67103 12.881 4.67103H12.8798Z" fill="black"/>
</svg>
